<svg id="Layer_1" data-name="Layer 1" xmlns="http://www.w3.org/2000/svg" viewBox="0 0 150 150"><defs><style>.cls-1{fill:none;stroke:#df6f34;stroke-miterlimit:10;stroke-width:2.38px;}</style></defs><path class="cls-1" d="M67.58,59.34a13.37,13.37,0,0,1,25.71,5.12,13.53,13.53,0,0,1-.22,2.39"/><path class="cls-1" d="M58.71,77.16A11,11,0,0,1,71.77,59.79"/><path class="cls-1" d="M69.19,81.06A8.94,8.94,0,1,1,56,72.35"/><path class="cls-1" d="M93,61.61a10.41,10.41,0,1,1,2.39,20.54,10.26,10.26,0,0,1-2.61-.33"/><path class="cls-1" d="M73.07,71.74a6.46,6.46,0,0,1-.26-1.82,6.69,6.69,0,0,1,12.62-3.08"/><path class="cls-1" d="M76.78,76.8a6.68,6.68,0,1,1-12.17-5.35"/><path class="cls-1" d="M85,76.59a6.68,6.68,0,1,1,0,13.3H79.58a5.2,5.2,0,0,0-5.2,5.2v6.53"/><path class="cls-1" d="M59.84,136V111.65a3.42,3.42,0,0,0-1.67-3c-4.3-2.59-15.46-11.12-15.46-29.93,0-23.29,21.92-34.25,37-34.25s34.94,6,34.94,29.84c0,9.49,11,22.23,11,25.65,0,2.32-11,2.74-11,2.74v13.16a3.45,3.45,0,0,1-2.61,3.35,60.33,60.33,0,0,1-14.52,2L97.42,136"/><line class="cls-1" x1="116.96" y1="51.1" x2="128.19" y2="39.86"/><line class="cls-1" x1="49.46" y1="47.69" x2="35.96" y2="32.28"/><line class="cls-1" x1="106.35" y1="42.69" x2="108.83" y2="37.04"/><line class="cls-1" x1="110.56" y1="33.47" x2="115.77" y2="21.87"/><line class="cls-1" x1="92.22" y1="39.06" x2="95.75" y2="24.31"/><line class="cls-1" x1="75.88" y1="37.58" x2="75.88" y2="14"/><line class="cls-1" x1="63.79" y1="39.91" x2="61.01" y2="33.47"/><line class="cls-1" x1="59.22" y1="29.61" x2="57.54" y2="25.72"/><line class="cls-1" x1="21.81" y1="49.94" x2="25.89" y2="52.4"/><line class="cls-1" x1="28.87" y1="54.34" x2="39.45" y2="60.82"/><path class="cls-1" d="M105.44,120.62s-20,2.86-22.83-5"/></svg>