<svg id="Layer_1" data-name="Layer 1" xmlns="http://www.w3.org/2000/svg" viewBox="0 0 150 150"><defs><style>.cls-1{fill:none;stroke:#653c5f;stroke-miterlimit:10;stroke-width:2.38px;}</style></defs><path class="cls-1" d="M75,58.34A18.67,18.67,0,1,0,56.31,39.67,18.67,18.67,0,0,0,75,58.34Z"/><path class="cls-1" d="M43.34,119.19c5.55,0,10.53-2.12,10.51-10.65,0-8.84-4.52-10.11-7.84-10.25-2.61-.1-4-1.76-2.74-4,0,0-8.06.41-8.21,10.36C34.87,117.7,37.79,119.19,43.34,119.19Z"/><path class="cls-1" d="M106.66,119.19c-5.55,0-10.53-2.12-10.51-10.65,0-8.84,4.52-10.11,7.84-10.25,2.61-.1,4-1.76,2.74-4,0,0,8.06.41,8.21,10.36C115.13,117.7,112.22,119.19,106.66,119.19Z"/><path class="cls-1" d="M108.21,94.54c-.26-1.87-.54-3.64-.74-4.7C105.34,79,97.82,65.18,75,65.18c-22.13,0-30.05,10-32.6,24.66-.19,1.07-.45,2.85-.72,4.74"/><path class="cls-1" d="M51.32,116.7c8.58,10.34,21.58,18.47,22.39,19a2.19,2.19,0,0,0,1.16.33,2.16,2.16,0,0,0,1.19-.36c.81-.52,13.94-9.11,22.49-19.51"/><path class="cls-1" d="M105.7,97.93A18.11,18.11,0,0,0,74.86,87.49,18.11,18.11,0,0,0,44,97.81"/></svg>