<svg xmlns="http://www.w3.org/2000/svg" viewBox="0 0 166.79 183.97"><defs><style>.cls-1{fill:none;stroke:#82c341;stroke-miterlimit:10;stroke-width:2px;}</style></defs><g id="Layer_2" data-name="Layer 2"><g id="Layer_1-2" data-name="Layer 1"><path class="cls-1" d="M165.79,28.89,83.39,1.06,1,28.89,1,70.47S-.08,164.53,83.39,183c83.47-18.42,82.38-112.48,82.38-112.48Z"/><path class="cls-1" d="M92.13,19.75S143.2,31.29,136,61.87,97.24,108.5,97.24,108.5,60.11,81,57.79,58.67s12.77-25.05,18-25.05c11.06,0,20.87,11,21.09,10.74,1.6-1.61,26.38-26.88,53.83-4.33l.08,34.34s.9,77-67.44,92.09C15.06,151.38,16,74.37,16,74.37l0-34L83.39,17.55Z"/></g></g></svg>