<?xml version="1.0" encoding="utf-8"?>
<!-- Generator: Adobe Illustrator 25.0.1, SVG Export Plug-In . SVG Version: 6.00 Build 0)  -->
<svg version="1.1" id="Layer_1" xmlns="http://www.w3.org/2000/svg" xmlns:xlink="http://www.w3.org/1999/xlink" x="0px" y="0px"
	 viewBox="0 0 252 54" style="enable-background:new 0 0 252 54;" xml:space="preserve">
<style type="text/css">
	.st0{fill:#FFFFFF;}
</style>
<g>
	<path class="st0" d="M43.5,16.7c-0.7-1.1-1.2-1.7-2-2.6C-24.4,24,63.9,32.3,25.4,52.6h37.4C85.6,28.5-8,26.1,43.5,16.7"/>
	<path class="st0" d="M24.1,50.2c3.2-1.7,5.2-3.1,6.5-4.3c-1,0.2-2,0.2-3,0.2c-10.5,0-19-8.5-19-19c0-10.5,8.5-19,19-19
		s19,8.5,19,19c0,0.2,0,0.4,0,0.6c2.2,0.8,4.4,1.6,6.5,2.5c0.1-1.1,0.2-2.2,0.2-3.4c0-14.3-11.6-25.8-25.8-25.8
		C13.2,0.9,1.7,12.5,1.7,26.8c0,12,8.2,22.2,19.4,25L24.1,50.2z"/>
</g>
<polygon class="st0" points="156.6,38.9 158.5,38.9 158.5,44.7 165.4,44.7 165.4,38.9 167.4,38.9 167.4,52.6 165.4,52.6 165.4,46.4 
	158.5,46.4 158.5,52.6 156.6,52.6 "/>
<polygon class="st0" points="175.1,50.9 182.3,50.9 182.3,52.6 173.2,52.6 173.2,38.9 182,38.9 182,40.6 175.1,40.6 175.1,44.7 
	181.6,44.7 181.6,46.4 175.1,46.4 "/>
<path class="st0" d="M188.3,52.6h-2.1l5.9-13.7h1.7l5.9,13.7h-2.2l-1.4-3.4h-6.5L188.3,52.6z M190.3,47.6h5.1l-2.6-6.4L190.3,47.6z"
	/>
<polygon class="st0" points="206.3,50.9 212.4,50.9 212.4,52.6 204.4,52.6 204.4,38.9 206.3,38.9 "/>
<polygon class="st0" points="220.4,52.6 218.5,52.6 218.5,40.6 214.1,40.6 214.1,38.9 224.8,38.9 224.8,40.6 220.4,40.6 "/>
<polygon class="st0" points="229.5,38.9 231.4,38.9 231.4,44.7 238.4,44.7 238.4,38.9 240.3,38.9 240.3,52.6 238.4,52.6 238.4,46.4 
	231.4,46.4 231.4,52.6 229.5,52.6 "/>
<path class="st0" d="M209.9,32.5h2.9V22.1c0-1.9,0.3-3.3,0.8-4.4c0.5-1,1.1-1.8,1.8-2.4c0.7-0.5,1.3-0.8,1.9-1
	c0.6-0.1,1-0.2,1.2-0.2c2,0,3.3,0.6,4,1.7c0.7,1.1,1.1,2.7,1.1,4.7v11.9h2.9V21.7c0-1,0.1-1.9,0.3-2.8c0.2-0.9,0.5-1.7,1-2.4
	c0.5-0.7,1-1.3,1.8-1.7c0.7-0.4,1.6-0.6,2.7-0.6c2,0,3.3,0.6,4,1.7c0.7,1.1,1.1,2.7,1.1,4.7v11.9h2.9V19.6c0-2.6-0.6-4.5-1.9-5.9
	c-1.2-1.4-3.2-2.1-5.8-2.1c-1.4,0-2.7,0.4-3.9,1.1c-1.3,0.8-2.2,1.8-2.8,3.1c-0.3-0.9-0.8-1.6-1.3-2.1c-0.5-0.6-1.1-1-1.6-1.3
	c-0.6-0.3-1.2-0.5-1.8-0.6c-0.6-0.1-1.2-0.2-1.8-0.2c-1.2,0-2.4,0.3-3.7,0.9c-1.2,0.6-2.2,1.5-2.9,2.7h-0.1v-3.1h-3.1
	c0.1,0.8,0.1,1.5,0.2,2.3c0,0.8,0.1,1.5,0.1,2.3V32.5z M204.3,32.5c-0.1-0.8-0.1-1.6-0.2-2.4c0-0.8-0.1-1.5-0.1-2.1V12.2h-2.9v10.4
	c0,1.9-0.3,3.3-0.9,4.4c-0.6,1-1.2,1.8-2,2.4c-0.7,0.5-1.4,0.8-2.1,1c-0.7,0.1-1.1,0.2-1.2,0.2c-1.1,0-2-0.2-2.7-0.5
	c-0.7-0.3-1.3-0.8-1.7-1.4c-0.4-0.6-0.7-1.3-0.9-2.2c-0.2-0.9-0.3-1.9-0.3-3V12.2h-2.9v12.9c0,2.6,0.6,4.5,1.9,5.9
	c1.2,1.4,3.2,2.1,5.8,2.1c0.7,0,1.3-0.1,2-0.3c0.7-0.2,1.3-0.5,1.9-0.8c0.6-0.3,1.2-0.7,1.7-1.2c0.5-0.5,0.9-1,1.2-1.5h0.1
	c0,0.6,0,1.1,0,1.6c0,0.5,0.1,1.1,0.1,1.6H204.3z M183.1,12.2h-5.9V6.4h-2.9v5.7H170v2.6h4.3v12.8c0,1.1,0.2,2,0.5,2.7
	c0.3,0.7,0.7,1.2,1.2,1.7c0.5,0.4,1,0.7,1.6,0.8c0.6,0.1,1.2,0.2,1.7,0.2c1.5,0,2.8-0.2,3.9-0.7l-0.1-2.7c-0.4,0.2-0.9,0.4-1.4,0.6
	c-0.5,0.1-1,0.2-1.5,0.2c-0.4,0-0.8-0.1-1.2-0.2c-0.4-0.1-0.7-0.3-0.9-0.5c-0.3-0.3-0.5-0.6-0.6-1.1c-0.1-0.5-0.2-1.1-0.2-1.8v-12
	h5.9V12.2z M149.6,12.2c0.1,0.8,0.1,1.6,0.2,2.4c0,0.8,0.1,1.5,0.1,2.1v15.9h2.9V22.1c0-1.9,0.3-3.3,0.9-4.4c0.6-1,1.2-1.8,2-2.4
	c0.7-0.5,1.4-0.8,2.1-1c0.7-0.1,1.1-0.2,1.2-0.2c2.1,0,3.6,0.6,4.4,1.8c0.8,1.2,1.2,2.9,1.2,5.2v11.3h2.9V19.6
	c0-2.6-0.6-4.5-1.9-5.9s-3.2-2.1-5.8-2.1c-0.7,0-1.3,0.1-2,0.3c-0.7,0.2-1.3,0.4-1.9,0.8c-0.6,0.3-1.2,0.7-1.7,1.2
	c-0.5,0.5-0.9,1-1.2,1.5h-0.1c0-0.5,0-1.1,0-1.6c0-0.5-0.1-1.1-0.1-1.6H149.6z M140.1,20c-1.2,0-2.6,0.1-4,0.2
	c-1.5,0.1-2.8,0.4-4.1,0.9c-1.3,0.5-2.4,1.2-3.2,2.1c-0.9,0.9-1.3,2.2-1.3,3.9c0,1,0.2,1.8,0.6,2.6c0.4,0.7,0.9,1.4,1.6,1.9
	c0.7,0.5,1.4,0.9,2.2,1.1c0.8,0.2,1.7,0.4,2.6,0.4c1.7,0,3.1-0.3,4.2-0.9c1.1-0.6,2.1-1.6,3-2.9h0.1c0,0.6,0,1.1,0.1,1.7
	c0,0.6,0.1,1.1,0.2,1.6h2.8c-0.1-0.6-0.2-1.3-0.2-2.1c-0.1-0.9-0.1-1.7-0.1-2.5v-9.1c0-1.3-0.2-2.3-0.6-3.2
	c-0.4-0.9-0.9-1.6-1.6-2.2c-0.7-0.6-1.5-1-2.4-1.3c-0.9-0.3-1.9-0.4-2.9-0.4c-3.8,0-6.7,1-8.6,3l1.7,2c1.8-1.6,3.8-2.4,6.2-2.4
	c3.5,0,5.2,1.8,5.2,5.3V20H140.1z M141.5,22.4v1.5c0,0.9-0.1,1.7-0.4,2.5c-0.2,0.8-0.6,1.5-1.2,2.1c-0.5,0.6-1.2,1.1-1.9,1.4
	c-0.8,0.3-1.7,0.5-2.7,0.5c-0.6,0-1.2-0.1-1.7-0.2c-0.6-0.1-1.1-0.4-1.5-0.7c-0.5-0.3-0.8-0.7-1.1-1.2c-0.3-0.5-0.4-1.1-0.4-1.7
	c0-1,0.4-1.8,1.1-2.4c0.7-0.6,1.6-1,2.6-1.3c1-0.3,2-0.4,3.1-0.5c1.1-0.1,2-0.1,2.7-0.1H141.5z M123.1,32.5
	c-0.1-0.8-0.1-1.6-0.2-2.4c0-0.8-0.1-1.5-0.1-2.1V12.2H120v10.4c0,1.9-0.3,3.3-0.9,4.4c-0.6,1-1.2,1.8-2,2.4c-0.7,0.5-1.4,0.8-2.1,1
	c-0.7,0.1-1.1,0.2-1.2,0.2c-1.1,0-2-0.2-2.7-0.5c-0.7-0.3-1.3-0.8-1.7-1.4c-0.4-0.6-0.7-1.3-0.9-2.2c-0.2-0.9-0.3-1.9-0.3-3V12.2
	h-2.9v12.9c0,2.6,0.6,4.5,1.9,5.9c1.2,1.4,3.2,2.1,5.8,2.1c0.7,0,1.3-0.1,2-0.3c0.7-0.2,1.3-0.5,1.9-0.8c0.6-0.3,1.2-0.7,1.7-1.2
	c0.5-0.5,0.9-1,1.2-1.5h0.1c0,0.6,0,1.1,0,1.6c0,0.5,0.1,1.1,0.1,1.6H123.1z M72.6,11.8c0.6-1.6,1.3-2.9,2.4-4.1
	c1-1.2,2.3-2.1,3.8-2.8c1.5-0.7,3.2-1.1,5.1-1.1c1.9,0,3.6,0.4,5.1,1.1c1.5,0.7,2.8,1.7,3.8,2.8c1,1.2,1.8,2.6,2.4,4.1
	c0.6,1.6,0.8,3.2,0.8,4.9c0,1.7-0.3,3.3-0.8,4.9c-0.6,1.6-1.3,2.9-2.4,4.1c-1,1.2-2.3,2.1-3.8,2.8c-1.5,0.7-3.2,1.1-5.1,1.1
	c-1.9,0-3.6-0.4-5.1-1.1c-1.5-0.7-2.8-1.7-3.8-2.8c-1-1.2-1.8-2.6-2.4-4.1c-0.6-1.6-0.8-3.2-0.8-4.9C71.8,15,72.1,13.4,72.6,11.8
	 M101.6,29.7h-9.3v-0.1c2.5-1.3,4.4-3.1,5.5-5.3c1.1-2.2,1.7-4.7,1.7-7.5c0-2.3-0.4-4.4-1.2-6.3c-0.8-1.9-1.9-3.6-3.3-5
	c-1.4-1.4-3-2.5-4.9-3.3c-1.9-0.8-4-1.2-6.2-1.2c-2.2,0-4.3,0.4-6.2,1.2c-1.9,0.8-3.5,1.9-4.9,3.3c-1.4,1.4-2.5,3.1-3.3,5
	c-0.8,1.9-1.2,4-1.2,6.3s0.4,4.4,1.2,6.3c0.8,1.9,1.9,3.6,3.3,5s3,2.5,4.9,3.3c1.9,0.8,4,1.2,6.2,1.2h17.6V29.7z"/>
<path class="st0" d="M246.8,14.9v-0.8h0.6c0.2,0,0.5,0.1,0.5,0.4c0,0.3-0.3,0.4-0.5,0.4H246.8z M248.9,16.8l-0.9-1.4
	c0.4-0.1,0.7-0.5,0.7-0.9c0-0.8-0.7-1.1-1.3-1.1H246v3.4h0.8v-1.3h0.5l0.7,1.3H248.9z M244.2,15.2c0,1.7,1.4,3,3,3c1.7,0,3-1.3,3-3
	c0-1.7-1.4-3-3-3C245.6,12.2,244.2,13.5,244.2,15.2 M244.7,15.2c0-1.4,1.1-2.6,2.6-2.6c1.4,0,2.6,1.1,2.6,2.6c0,1.4-1.1,2.6-2.6,2.6
	C245.8,17.7,244.7,16.6,244.7,15.2"/>
</svg>
