<svg id="Layer_1" data-name="Layer 1" xmlns="http://www.w3.org/2000/svg" viewBox="0 0 150 150"><defs><style>.cls-1{fill:none;stroke:#ffcd00;stroke-miterlimit:10;stroke-width:2.38px;}</style></defs><line class="cls-1" x1="81.16" y1="134.94" x2="93.27" y2="134.94"/><line class="cls-1" x1="57.83" y1="134.94" x2="69.91" y2="134.94"/><path class="cls-1" d="M73.16,24.35a10.36,10.36,0,1,1,18.5,6.4"/><path class="cls-1" d="M109.94,40.63a10.89,10.89,0,0,1,2.37-.26A10.61,10.61,0,0,1,123,50.87a10.44,10.44,0,0,1-5.22,9"/><path class="cls-1" d="M36.63,102.71a10.49,10.49,0,0,1-1.87.16A9.85,9.85,0,0,1,24.7,92.82a10.33,10.33,0,0,1,3.13-7.42"/><path class="cls-1" d="M62,49.08a8,8,0,1,1-10.81-9.29"/><path class="cls-1" d="M93.36,23.32a12.71,12.71,0,0,1,16.17,18.49"/><path class="cls-1" d="M37.31,87a12.92,12.92,0,0,1-2.26.2,12.71,12.71,0,1,1,4.79-24.48"/><path class="cls-1" d="M49.11,41.44a10.37,10.37,0,0,1-5.35-9c0-5.79,5-10.48,11.11-10.48a11.53,11.53,0,0,1,6.56,2"/><path class="cls-1" d="M59.4,22.58a7,7,0,0,1,13.76,1.77"/><path class="cls-1" d="M116.6,59.6c5.61,0,10.15,5.12,10.15,11.43s-4.54,11.43-10.15,11.43a9.58,9.58,0,0,1-7.18-3.35"/><path class="cls-1" d="M37.2,61.84a8.77,8.77,0,0,1-1.75-5.07c0-5.27,4.71-9.66,10.4-9.66"/><path class="cls-1" d="M90.72,56.21a9,9,0,0,1-7.4-6.47"/><path class="cls-1" d="M100.88,47.58A10.35,10.35,0,0,0,90.53,57.93a10.51,10.51,0,0,0,.19,2"/><path class="cls-1" d="M76.45,69.76a12.5,12.5,0,0,1,17.09-9"/><line class="cls-1" x1="69.97" y1="98.57" x2="69.97" y2="136"/><polyline class="cls-1" points="100.8 85.65 81.19 111.35 81.19 136"/><polyline class="cls-1" points="81.19 91.54 81.19 101.1 97.04 84.18"/><line class="cls-1" x1="78.85" y1="52.57" x2="78.85" y2="64.59"/><path class="cls-1" d="M86.29,46.48c-3,4.56-9.08,7.68-16.06,7.68a21.72,21.72,0,0,1-9.44-2.1"/><path class="cls-1" d="M87.42,44.37a13.39,13.39,0,0,1-1.13,2.11"/><path class="cls-1" d="M63.69,66.37a10.73,10.73,0,0,1,5.49,12.52"/><path class="cls-1" d="M62.65,66.72a7.41,7.41,0,0,0-2.89-14.23"/><path class="cls-1" d="M59.76,75.86A8.11,8.11,0,0,1,51.65,84a8.36,8.36,0,0,1-1.34-.11"/><path class="cls-1" d="M49.59,109.71a14.2,14.2,0,0,1-5.67,1.17c-6.18,0-11.27-3.47-12.9-8.83"/><path class="cls-1" d="M67.57,70.66a11.61,11.61,0,0,1,10.83-5.2"/><path class="cls-1" d="M90.53,76.53A11.58,11.58,0,0,1,79,88.12a11.42,11.42,0,0,1-3.58-.57"/><path class="cls-1" d="M112.72,81.59A13.23,13.23,0,0,1,103,85.71c-7,0-12.74-5.19-12.74-11.59"/><path class="cls-1" d="M87.44,103.84a11.84,11.84,0,0,0,20.17,1.76"/><path class="cls-1" d="M121.3,81.14a14.38,14.38,0,0,1-15.12,24.43"/><line class="cls-1" x1="71.6" y1="54.16" x2="71.6" y2="66.91"/><path class="cls-1" d="M57,82.07a10.87,10.87,0,1,1,7.73,18.51"/><path class="cls-1" d="M68.38,99.93a9.93,9.93,0,0,1,.91,4.13c0,5.86-5.15,10.62-11.5,10.62a11.78,11.78,0,0,1-9.66-4.84"/></svg>