<svg id="Layer_1" data-name="Layer 1" xmlns="http://www.w3.org/2000/svg" viewBox="0 0 150 150"><defs><style>.cls-1{fill:none;stroke:#008e92;stroke-miterlimit:10;stroke-width:2.38px;}</style></defs><circle class="cls-1" cx="56.48" cy="28.47" r="7.97"/><path class="cls-1" d="M42.82,64.37l16.47,1.9a5.16,5.16,0,0,1,5.16,5.16l-.26,16a4.91,4.91,0,1,1-9.81,0l-.1-12.52L45,73.6"/><polyline class="cls-1" points="147.16 129.5 73.46 129.5 73.46 92.91 2.84 92.91"/><circle class="cls-1" cx="108.48" cy="64.42" r="7.18"/><path class="cls-1" d="M116,101.14,99.5,103a5.16,5.16,0,0,0-5.16,5.16l.25,16a4.91,4.91,0,1,0,9.81,0l.1-12.52,9.24-1.28"/><path class="cls-1" d="M134.94,118.75l-12.85.6,8.65-11.66a8.17,8.17,0,0,0,2-5.34,7.79,7.79,0,0,0-1.35-4.41L120.47,78.69a5.77,5.77,0,0,0-4.84-3.13L96.9,74.62,82.6,62.24a3.23,3.23,0,0,0-5.26,2.52,3.2,3.2,0,0,0,1.08,2.4L92.78,80.89l13.81,4.43,8.93,15a6.36,6.36,0,0,1,.66,5.73c-1.14,2.7-6.65,15.51-6.89,16.16-1.51,4,2.1,6.86,5.22,6.86h20.43a5.17,5.17,0,0,0,0-10.33Z"/><path class="cls-1" d="M76,59.13,62,52,52.31,40.38c-2.25-2.25-3.66-3.94-6.48-3.94A7.31,7.31,0,0,0,40,39.38L27.39,61.17A7.87,7.87,0,0,0,26,65.58a8.17,8.17,0,0,0,2,5.34L36.7,82.58H23.85a5.17,5.17,0,1,0,0,10.33l20.43-.6c3.11,0,6.73-2.85,5.22-6.86-.25-.65-5.76-13.46-6.9-16.17a6.37,6.37,0,0,1,.67-5.72l5.89-10.8,10.11,6.93,14.46,5.12a3,3,0,0,0,3.89-3A3.07,3.07,0,0,0,76,59.13Z"/></svg>